<svg version="1.2" xmlns="http://www.w3.org/2000/svg" viewBox="0 0 640 200" width="640" height="200">
	<title>New Project</title>
	<style>
		.s0 { fill: #c85555 } 
	</style>
	<path id="sharanga" class="s0" aria-label="sharanga"  d="m85.6 65.2v9.3h-8.5v29.7q-4.7-2.8-13.3-4.7q-8.2-1.9-14.1-1.9q-14.3 0-24 5.1q-5.5 2.9-5.5 7.6q0 6.2 6.6 6.2q4 0 10.4-2.3q4.1-1.5 10.6-3.8q2.7-0.9 9.7-0.9q13.5 0 20.2 8.4q3.2 4 3.2 9.3q0 12.5-15.7 19.6q-6.4 3-12.3 3.4q5.6 5.6 10.7 5.6q1.6 0 3.5-0.5l7.9 12.9q-2.4 2.1-9.9 2.1q-6.1 0-10.3-4.1q-2.3-2.3-6.4-9.5q-3.6-6.2-5.9-6.2q-14.5-0.4-22.3-5.3q-4.9-3-4.9-8.3q0-6.6 7.8-6.6q2.9 0 12 4.5q9.3 4.5 15.2 4.5q11.9 0 22.3-5.6q5.1-2.8 5.1-6.8q0-5.9-9.4-5.9q-2.9 0-18.7 4.2q-9.3 2.5-11.4 2.5q-12.4 0-20.5-11.7q-3.9-5.6-3.9-12.1q-0.1-13.2 18.1-17.9q7.4-1.8 14-1.8q7.5 0 21.2 3.6v-13.3h-62.2v-9.3zm85.1 0v9.3h-63.1v23.6q8.5-9.3 15.8-12q4-1.5 9.1-1.5q19.1 0 28.5 18.8q4.2 8.2 4.2 16.2q0 14.5-12 26.3q-4 3.9-5.9 5.4l-12.8-7.7q4.8-5.1 11-12.5q6.9-8.4 7-21.1q0.1-7.6-3.4-12.7q-4-5.9-11.3-5.8q-6.7 0.2-14.4 5.1q-6.9 4.4-11.4 10.5q-4.9 6.5-4.9 12.6v31.1l-14.6-7.8v-68.5h-8.6v-9.3h8.6q0-23-12-39.3q-7.2-9.8-13.3-13.8l15.8-0.1q13.1 7.2 20.9 31q3.7 11.4 3.7 22.2zm75.5 0v9.3h-52.1v12.6q0.3 0 0.6 0.3q0.4 0.3 0.6 0.3q-0.6 0-0.7-0.1q0-0.4 11.6-2.5q4.3-0.8 8.6-0.8q17.5 0 22.6 9.9q3.3 6.5 3.3 26.5v30.1q-1.6-0.6-12.4-5.1q0-2.5-1-3.2q-4.2 2.4-6.8 3.7q-8.5 4-19.7 4q-15.4 0-23.7-9.7q-4.1-4.7-4.1-10.5q0-6.5 6.4-12.9q12.4-12.5 30.9-12.5q11.2 0 18 5.2v-7.2q-3.5-4.4-6.7-5.8q-3.2-1.5-8.9-1.4q-12.6 0.3-23 4.6q-4.7 2-9.2 3.6v-5.8q1-0.9 3-2.6q0.3-0.4 0.4-0.5v-20.2h-16.1v-9.3zm-17.9 58.8q0-3.4-8.2-6.1q-6.8-2.3-11.3-2.3q-16.5 0-26.4 11.9q-4 4.8-4 7.8q1.6 5.7 12.9 5.7q14.5 0 26.6-7.3q10.4-6.3 10.4-9.7zm95.9-58.8v9.3h-79.1v-9.3zm-6.4 37.4q0 4.6-5.6 10.4q-4.7 4.9-9.8 7.4l-11.8-13.3q5.3-0.5 10.1-3.9q5.5-3.9 5.5-9q0-2.6-3.5-4.5q-2.9-1.7-5.8-1.7q-6 0-12.9 5.8q-14 11.7-14 25.9v33.2l-15-7.8v-57.9h15.1v6q3.4-3.4 14-7.1q5.1-1.8 10.6-1.8q11.3 0 19.2 8.7q3.9 4.2 3.9 9.6zm81.4-37.4v9.3h-52v12.6q0.3 0 0.6 0.3q0.3 0.3 0.5 0.3q-0.6 0-0.7-0.1q0-0.4 11.7-2.5q4.3-0.8 8.5-0.8q17.6 0 22.6 9.9q3.4 6.5 3.4 26.5v30.1q-1.7-0.6-12.5-5.1q0-2.5-1-3.2q-4.1 2.4-6.8 3.7q-8.4 4-19.6 4q-15.4 0-23.8-9.7q-4.1-4.7-4.1-10.5q0-6.5 6.5-12.9q12.4-12.5 30.8-12.5q11.2 0 18 5.2v-7.2q-3.4-4.4-6.7-5.8q-3.2-1.5-8.8-1.4q-12.6 0.3-23.1 4.6q-4.7 2-9.1 3.6v-5.8q1-0.9 2.9-2.6q0.3-0.4 0.4-0.5v-20.2h-16v-9.3zm-17.9 58.8q0-3.4-8.2-6.1q-6.8-2.3-11.4-2.3q-16.5 0-26.4 11.9q-4 4.8-4 7.8q1.7 5.7 12.9 5.7q14.6 0 26.6-7.3q10.5-6.3 10.5-9.7zm100.8-58.8v9.3h-84v-9.3zm-16.8 43.7q0-18.8-17.8-18.8q-13.1 0-21.9 13.8q-7.9 12.2-7.9 25.9v22.8l-12.8-6.7v-58.8h13.5v9.3l6.9-5.3q9.2-6.9 19.5-6.9q13.9 0 23.1 10.8q8.6 10.1 8.6 24.3q0 17.7-15.1 34.1l-15-9.5q7-7 11.9-12.8q7-8.3 7-22.2zm96.9 53.8q0 14.5-14.1 14.5q-6.3 0-18.2-5.9q-13.1-6.6-22-6.6q-19.2 0-36.1 15.1q-8.2 7.3-12.8 17.1q-0.3-1.2-0.3-4q0-9.4 5.6-18.7q5.2-8.6 13.4-14.3q9.2-6.5 21-6.5q8.2 0 14.2 2.7q3.2 1.5 12.4 7.7q7.8 5.3 11.9 5.3q10.3 0 16.4-8.5q2.7-3.7 2.7-7.2q0-6.2-3.8-10.4q-3.7-4.2-9.8-4.2q-5.6 0-18.5 5.7q-12.9 5.7-18.6 5.7q-4.1 0-10-4.2q-12.2-8.7-12.2-16.2q0-4.1 4.6-7.6q4.2-3.2 8.6-3.6l0.1-0.8l-3.8-5.4q-3.2-4.5-3.2-9.8q0-18 29.4-18q0.8-0.1 1.1-1.4v-8.7h-40.5v-9.3h80.4v9.3h-27.7v13.2q0 3.7 2.1 4.5q1.3 0 3.3-2.4l3-3.6q1.2-1.2 4.2-1.6q5 0 9.4 5.7q2 2.5 2.7 5.1l-8.2 9.4q-0.2-3.6-1.5-6.6q-1.8-4-4.7-4q-1.1 0-2.6 1.1q-1.5 1-1.5 2q0 1.2 1 2.8q1.2 2 1.4 2.4q0.5 1.8 0.5 4.6q0 10.5-8.6 14.3q-5.7 2.5-18 2.5q-15.6 0-21.3 6.9q-2.3 2.8-2.2 4.5q0.1 2.3 2.3 4.1q2.3 1.8 4.7 1.8q4.5 0 17.2-6.2q14.9-7.3 24-7.4q8.4-0.2 14.1 7.4q4.6 6 6.7 15.3q1.8 8.2 1.8 12.4zm-30.5-62.8q0-9.5-10-9.5q-8.2 0-15.4 5.7q-7.9 6.1-7.9 14q0 4.3 3.3 7.4q3.4 3 7.7 3q4.4 0.1 10.1-3.2q5-2.9 8.3-6.7q3.9-4.7 3.9-10.7zm103.5-34.7v9.3h-52.1v12.6q0.3 0 0.6 0.3q0.4 0.3 0.6 0.3q-0.6 0-0.7-0.1q0-0.4 11.6-2.5q4.3-0.8 8.6-0.8q17.5 0 22.6 9.9q3.3 6.5 3.3 26.5v30.1q-1.6-0.6-12.4-5.1q0-2.5-1-3.2q-4.2 2.4-6.8 3.7q-8.5 4-19.7 4q-15.4 0-23.7-9.7q-4.1-4.7-4.1-10.5q0-6.5 6.4-12.9q12.4-12.5 30.9-12.5q11.2 0 18 5.2v-7.2q-3.5-4.4-6.7-5.8q-3.2-1.5-8.9-1.4q-12.6 0.3-23 4.6q-4.7 2-9.2 3.6v-5.8q1-0.9 3-2.6q0.3-0.4 0.4-0.5v-20.2h-16.1v-9.3zm-17.9 58.8q0-3.4-8.2-6.1q-6.8-2.3-11.3-2.3q-16.5 0-26.4 11.9q-4 4.8-4 7.8q1.6 5.7 12.9 5.7q14.5 0 26.6-7.3q10.4-6.3 10.4-9.7z"/>
</svg>